<?xml version="1.0" standalone="no"?>
<!DOCTYPE svg PUBLIC "-//W3C//DTD SVG 20010904//EN"
 "http://www.w3.org/TR/2001/REC-SVG-20010904/DTD/svg10.dtd">
<svg version="1.0" xmlns="http://www.w3.org/2000/svg"
 width="408.000000pt" height="352.000000pt" viewBox="0 0 408.000000 352.000000"
 preserveAspectRatio="xMidYMid meet">

<g transform="translate(0.000000,352.000000) scale(0.100000,-0.100000)"
fill="#000000" stroke="none">
<path d="M1825 3424 c-302 -47 -562 -179 -780 -398 -207 -208 -325 -428 -386
-720 -31 -143 -31 -389 0 -532 62 -297 180 -515 390 -724 207 -206 428 -324
721 -387 133 -28 411 -26 550 5 281 63 505 186 706 386 193 193 323 434 381
706 25 119 26 439 0 557 -86 399 -322 728 -668 932 -270 158 -605 223 -914
175z m161 -126 c6 -42 10 -48 30 -48 20 0 24 5 24 28 0 36 -9 45 -29 29 -9 -7
-8 -2 4 15 13 17 26 25 35 21 8 -3 23 -5 33 -5 14 1 15 -3 6 -20 -14 -26 -3
-180 14 -190 7 -4 7 -11 -2 -22 -18 -22 -38 -20 -46 4 -6 19 -6 19 -38 0 -18
-11 -50 -20 -74 -20 -56 0 -93 42 -93 106 0 36 6 51 36 84 l36 40 -36 0 c-29
0 -39 -5 -46 -22 -7 -19 -9 -20 -9 -5 -2 45 16 56 84 54 l65 -2 6 -47z m314
-54 c0 -12 6 -15 24 -10 26 6 84 -18 67 -28 -6 -4 -18 -32 -27 -63 -13 -43
-13 -57 -4 -63 9 -5 6 -10 -10 -15 -38 -12 -44 7 -27 77 11 43 13 66 6 73 -16
16 -38 -22 -45 -78 -7 -51 -24 -68 -48 -48 -12 10 -12 16 1 41 8 16 15 49 16
72 1 24 7 46 12 50 17 13 35 9 35 -8z m324 -31 c-26 -19 -36 -16 -24 7 6 12
16 17 27 13 14 -6 14 -8 -3 -20z m-1131 -125 c29 -63 46 -88 59 -88 16 0 17
-3 8 -21 -8 -14 -19 -19 -36 -17 -14 2 -24 6 -24 11 1 15 -83 172 -99 184 -14
11 -14 12 5 13 12 0 25 8 29 18 6 14 8 14 12 2 2 -8 23 -54 46 -102z m1082 71
c4 -6 -8 -38 -26 -72 -21 -40 -28 -62 -21 -65 18 -6 4 -22 -18 -22 -22 0 -48
39 -32 49 13 8 52 87 52 106 0 17 35 21 45 4z m203 -56 c-10 -2 -18 -8 -19
-11 0 -4 -2 -19 -4 -34 -3 -25 0 -28 25 -28 53 0 47 -29 -24 -123 -23 -30 -76
-19 -97 20 l-18 33 29 31 c16 18 34 46 41 63 18 46 29 56 58 55 17 -1 20 -3 9
-6z m-1425 -153 c53 -69 43 -105 -35 -124 -19 -4 -28 -2 -28 5 0 7 -15 30 -33
53 -31 38 -33 43 -21 71 10 26 35 42 69 44 6 0 27 -22 48 -49z m787 20 c211
-26 383 -107 539 -255 126 -120 216 -271 263 -440 31 -116 31 -354 0 -470 -46
-169 -136 -318 -263 -441 -117 -111 -215 -170 -365 -217 -443 -140 -922 68
-1124 486 -70 146 -85 218 -85 407 0 142 3 176 23 245 89 310 327 555 632 649
136 43 242 52 380 36z m843 -107 c11 -3 17 -15 17 -32 0 -43 -12 -51 -65 -49
-42 3 -50 0 -53 -16 -2 -11 4 -26 14 -34 18 -13 17 -14 -6 -7 -31 9 -46 23
-55 53 -4 15 -2 22 7 22 7 0 31 18 53 39 23 23 46 37 55 34 8 -3 23 -8 33 -10z
m-1879 -24 c16 14 29 1 21 -22 -9 -21 78 -90 94 -74 8 8 11 5 11 -14 0 -17 -8
-29 -21 -35 -17 -8 -29 -2 -69 39 -27 27 -53 46 -58 43 -6 -3 -13 6 -16 22 -4
15 -10 36 -13 47 -6 20 -5 20 15 1 17 -15 25 -16 36 -7z m-170 -145 c11 -30 6
-37 -14 -19 -11 10 -17 22 -14 26 8 14 21 11 28 -7z m2186 -14 c12 -6 16 -17
13 -30 -4 -14 0 -20 11 -20 18 0 21 -17 7 -39 -11 -18 -31 -5 -31 20 0 24 0
24 -54 -3 -42 -20 -68 -48 -46 -48 6 0 10 -4 10 -10 0 -6 -10 -5 -25 2 -17 8
-25 19 -25 37 1 22 10 30 61 53 34 16 58 32 54 38 -8 13 1 13 25 0z m-2076
-65 c32 -20 61 -32 70 -29 12 4 16 0 16 -15 0 -26 -40 -45 -55 -26 -14 18 -95
67 -95 58 0 -4 -5 -2 -11 4 -13 13 -5 43 10 43 6 0 35 -16 65 -35z m-48 -185
c33 -11 50 -52 38 -85 -5 -11 1 -15 20 -15 28 0 35 -14 11 -24 -8 -3 -12 -12
-9 -21 5 -13 2 -13 -25 2 -28 16 -33 16 -41 3 -8 -13 -14 -8 -12 11 2 10 -85
40 -105 37 -12 -2 -19 4 -21 20 -4 27 36 47 53 27 5 -7 27 -18 49 -25 31 -10
40 -10 47 1 4 7 6 16 3 20 -8 14 -91 37 -105 28 -8 -5 -16 -3 -21 4 -12 19 -9
27 14 36 22 8 40 5 104 -19z m2234 3 c10 -10 20 -31 22 -48 2 -24 7 -30 26
-28 21 3 29 -7 16 -20 -3 -3 -25 0 -49 7 -41 13 -43 12 -53 -9 -24 -52 -112
-34 -112 22 0 13 -5 34 -11 45 -10 18 -9 20 6 14 50 -19 65 -18 65 2 0 33 60
42 90 15z m-2311 -259 c48 -2 67 -7 74 -19 7 -13 4 -18 -12 -22 -25 -6 -25
-11 -6 -37 32 -42 -31 -63 -78 -26 -21 17 -30 18 -53 10 -15 -6 -28 -9 -30 -8
-7 7 -7 56 1 86 6 26 11 31 24 26 9 -4 45 -9 80 -10z m2379 2 c27 -17 -8 -33
-75 -35 -37 -1 -70 -6 -74 -12 -3 -6 -10 -4 -18 5 -9 11 -9 19 -1 33 10 15 25
18 83 18 40 -1 78 -4 85 -9z m82 -16 c8 -5 12 -12 8 -15 -9 -9 -48 4 -48 16 0
12 21 11 40 -1z m-154 -171 c27 -1 54 0 60 3 5 3 25 -7 44 -23 l34 -29 -26 0
c-14 0 -28 -7 -32 -15 -8 -22 -26 -18 -26 5 0 19 -5 21 -62 18 -50 -2 -62 -6
-60 -18 1 -9 -5 -6 -18 8 -19 23 -19 25 -2 47 10 13 21 20 27 15 6 -5 33 -9
61 -11z m-2231 -125 c8 -18 15 -43 15 -56 0 -30 -33 -83 -60 -98 -33 -17 -96
-14 -131 6 -47 28 -47 45 0 22 35 -17 45 -18 76 -8 56 18 43 33 -22 26 -54 -5
-60 -4 -90 24 -27 24 -33 37 -33 70 0 22 4 40 9 40 17 0 33 -30 29 -55 -6 -28
-16 -28 116 -5 33 5 61 10 63 10 6 0 -11 37 -30 64 l-21 29 32 -18 c17 -11 38
-33 47 -51z m2125 -34 c13 -11 48 -28 78 -36 45 -13 56 -14 63 -3 6 10 10 7
17 -11 11 -29 7 -40 -14 -40 -12 0 -13 -8 -8 -35 6 -35 6 -35 -30 -35 -48 0
-78 30 -101 101 -21 66 -30 76 -49 59 -10 -8 -14 -21 -10 -36 4 -15 2 -24 -5
-24 -14 0 -14 35 -1 61 14 24 31 24 60 -1z m-1820 -650 c34 -34 21 -53 -19
-28 -38 24 -70 -31 -33 -58 16 -12 16 -13 -1 -19 -23 -9 -57 21 -57 50 0 29
43 75 70 75 11 0 29 -9 40 -20z m1585 -51 c20 -55 17 -92 -8 -97 -14 -3 -17 1
-12 20 5 20 0 27 -38 45 -42 21 -45 21 -50 4 -5 -22 11 -54 24 -46 17 11 31
-6 18 -21 -17 -20 -47 -17 -61 6 -7 11 -18 20 -25 20 -7 0 -10 11 -9 28 2 20
9 27 25 28 13 1 30 8 38 17 14 14 18 14 39 0 25 -16 31 -9 14 17 -5 9 -5 19 2
28 14 16 21 8 43 -49z m-1501 -56 c6 -15 -2 -33 -28 -66 -13 -17 -15 -17 -45
0 -37 22 -44 36 -26 59 11 16 17 16 39 6 15 -7 26 -8 26 -2 0 6 -7 10 -15 10
-15 0 -20 12 -9 23 9 9 52 -13 58 -30z m1306 13 c0 -8 -4 -17 -9 -21 -12 -7
-24 12 -16 25 9 15 25 12 25 -4z m38 -52 c22 -33 24 -64 5 -64 -14 0 -55 71
-49 86 8 22 19 17 44 -22z m-78 12 c0 -8 -9 -18 -21 -21 -24 -8 -23 -43 3 -59
13 -8 23 -8 37 1 31 19 36 -13 6 -33 -33 -22 -71 -11 -90 26 -20 39 -19 47 10
75 27 28 55 33 55 11z m-1189 -16 l28 -21 -30 -49 c-25 -41 -36 -50 -58 -50
-32 0 -69 34 -51 45 7 4 17 2 23 -4 6 -6 18 -11 26 -11 11 0 9 5 -7 16 -27 19
-28 44 -2 72 26 27 34 27 71 2z m98 -55 c16 -15 10 -50 -14 -80 -12 -14 -18
-16 -21 -7 -3 6 -14 12 -24 12 -24 0 -42 24 -34 45 5 13 15 16 41 12 20 -4 31
-2 28 4 -4 5 -13 9 -21 9 -8 0 -14 7 -14 16 0 18 35 11 59 -11z m59 -50 l4
-29 18 24 c15 19 22 22 31 13 18 -18 -64 -113 -97 -113 -29 0 -32 25 -4 33 17
4 20 14 20 57 0 37 4 50 13 48 6 -3 14 -18 15 -33z m900 19 c26 -18 28 -50 5
-76 -20 -22 -41 -23 -65 -1 -25 22 -23 59 4 77 12 9 25 16 28 16 3 0 16 -7 28
-16z m-95 -28 c3 -8 -1 -17 -9 -20 -11 -4 -13 -15 -8 -42 6 -31 4 -35 -11 -32
-11 2 -23 19 -30 46 -12 40 -6 60 14 47 5 -3 12 -1 16 5 9 14 22 12 28 -4z
m-668 -10 c14 -10 17 -21 12 -51 -3 -20 -8 -39 -10 -41 -2 -3 -22 -1 -43 4
-33 7 -39 12 -39 32 0 21 6 26 35 31 21 4 26 7 13 8 -27 1 -31 31 -5 31 10 0
26 -6 37 -14z m575 -5 c18 -34 12 -78 -12 -95 -49 -34 -98 -7 -98 54 0 46 14
60 62 60 27 0 40 -5 48 -19z m-280 -60 l0 -68 -41 0 c-33 0 -43 4 -51 23 -16
35 4 74 37 74 18 0 25 5 25 20 0 11 7 20 15 20 12 0 15 -14 15 -69z m-207 47
c32 6 48 -17 41 -57 -9 -47 -12 -51 -30 -44 -11 4 -13 14 -8 40 5 28 4 35 -7
31 -8 -3 -16 -18 -19 -34 -3 -16 -9 -28 -13 -26 -4 1 -12 2 -17 2 -7 0 -9 14
-5 38 10 56 14 64 27 55 7 -4 21 -6 31 -5z m305 -30 c21 -21 13 -37 -20 -47
l-33 -9 28 -1 c34 -1 32 -24 -2 -29 -45 -7 -80 55 -49 86 15 15 61 15 76 0z"/>
<path d="M1922 3297 c-34 -36 -46 -80 -32 -122 6 -19 15 -35 20 -35 13 0 20
42 14 82 -4 23 -1 47 9 67 18 37 17 38 -11 8z"/>
<path d="M1961 3244 c-1 -59 -5 -85 -16 -94 -22 -18 -18 -30 10 -30 24 0 25 2
24 73 -2 110 -16 151 -18 51z"/>
<path d="M1990 3225 c0 -10 10 -15 30 -15 22 0 28 4 24 15 -4 8 -17 15 -30 15
-15 0 -24 -6 -24 -15z"/>
<path d="M1990 3161 c0 -45 5 -48 38 -25 32 22 26 58 -10 62 -27 3 -28 1 -28
-37z"/>
<path d="M2715 2984 c-21 -27 -25 -40 -18 -56 8 -18 12 -16 46 27 20 26 34 52
31 56 -11 18 -32 8 -59 -27z"/>
<path d="M1260 2952 c0 -5 14 -27 31 -49 22 -29 37 -39 50 -36 17 5 16 9 -13
49 -27 38 -68 60 -68 36z"/>
<path d="M1962 2888 c-28 -28 -7 -78 33 -78 27 0 45 18 45 45 0 27 -18 45 -45
45 -12 0 -26 -5 -33 -12z m53 -33 c0 -30 -39 -27 -43 3 -3 20 0 23 20 20 15
-2 23 -10 23 -23z"/>
<path d="M2110 2855 c0 -25 5 -45 10 -45 6 0 10 20 10 45 0 25 -4 45 -10 45
-5 0 -10 -20 -10 -45z"/>
<path d="M2156 2869 c-9 -44 -8 -59 4 -59 6 0 10 10 10 23 1 21 1 21 15 3 8
-10 16 -24 19 -30 3 -7 8 -6 15 4 14 19 14 83 1 75 -5 -3 -10 -16 -10 -28 0
-19 -3 -18 -21 11 -12 17 -22 32 -24 32 -1 0 -5 -14 -9 -31z"/>
<path d="M1907 2853 c7 -49 23 -67 23 -26 0 36 -9 63 -20 63 -5 0 -6 -17 -3
-37z"/>
<path d="M1837 2873 c-16 -16 -5 -41 20 -48 20 -5 24 -8 13 -15 -8 -5 -18 -6
-22 -4 -4 3 -8 0 -8 -5 0 -15 35 -14 48 2 13 15 4 30 -23 42 -18 7 -18 9 -2
12 9 3 17 9 17 14 0 10 -33 12 -43 2z"/>
<path d="M2265 2870 c-3 -4 2 -10 10 -14 12 -4 13 -11 5 -31 -12 -33 -13 -45
-1 -45 5 0 12 14 16 30 4 17 13 30 20 30 29 0 23 17 -10 27 -19 6 -37 8 -40 3z"/>
<path d="M1762 2851 c-21 -13 -10 -46 16 -49 29 -4 29 -22 0 -22 -16 0 -19 -3
-11 -11 8 -8 17 -8 33 1 27 14 22 44 -8 48 -24 4 -31 22 -7 22 8 0 15 5 15 10
0 12 -20 13 -38 1z"/>
<path d="M2347 2803 c-15 -37 -14 -38 10 -51 28 -15 48 -6 20 9 -25 14 -21 31
6 24 20 -6 21 -5 5 8 -26 20 -22 28 10 22 26 -6 26 -6 8 9 -30 24 -42 20 -59
-21z"/>
<path d="M1677 2814 l-27 -15 20 -39 c19 -37 22 -39 45 -28 32 15 32 30 0 22
-29 -7 -32 3 -7 23 16 13 15 14 -5 8 -27 -8 -30 3 -6 21 26 19 12 24 -20 8z"/>
<path d="M2442 2778 c-30 -30 -3 -83 39 -76 31 4 35 24 8 38 -19 11 -21 10
-16 -4 4 -10 1 -16 -8 -16 -20 0 -19 39 0 46 8 4 22 1 30 -6 9 -7 19 -10 23
-6 9 10 -26 36 -48 36 -9 0 -21 -5 -28 -12z"/>
<path d="M1583 2764 c-18 -8 -16 -22 8 -55 22 -32 42 -39 32 -12 -5 13 -2 15
11 10 10 -4 23 -4 29 0 7 4 3 9 -9 13 -10 4 -19 16 -19 26 0 19 -27 28 -52 18z
m31 -25 c-3 -5 -10 -7 -15 -3 -5 3 -7 10 -3 15 3 5 10 7 15 3 5 -3 7 -10 3
-15z"/>
<path d="M1975 2667 l-70 -72 70 68 71 67 56 -57 c31 -32 58 -67 61 -78 5 -20
5 -20 6 0 1 13 -23 44 -62 83 l-63 62 -69 -73z"/>
<path d="M2527 2706 c-26 -33 -26 -56 0 -35 10 9 13 7 13 -9 0 -12 5 -24 10
-27 6 -3 10 1 10 10 0 9 10 25 22 35 22 18 23 18 4 39 -25 28 -29 27 -59 -13z
m50 -12 c-9 -9 -28 6 -21 18 4 6 10 6 17 -1 6 -6 8 -13 4 -17z"/>
<path d="M1506 2704 c-30 -30 -13 -74 29 -74 27 0 45 18 45 47 0 26 -21 30
-40 8 -10 -12 -10 -15 4 -15 9 0 16 -4 16 -10 0 -17 -40 -11 -47 6 -4 11 2 23
18 35 19 15 20 19 7 19 -9 0 -24 -7 -32 -16z"/>
<path d="M2608 2642 c-42 -19 -49 -32 -17 -32 12 0 23 -8 26 -20 8 -30 18 -24
35 19 22 55 17 59 -44 33z m32 -16 c0 -3 -4 -8 -10 -11 -5 -3 -10 -1 -10 4 0
6 5 11 10 11 6 0 10 -2 10 -4z"/>
<path d="M1420 2620 c-11 -11 -20 -24 -20 -30 0 -5 9 -19 20 -30 11 -11 25
-20 30 -20 6 0 19 9 30 20 11 11 20 25 20 30 0 6 -9 19 -20 30 -11 11 -24 20
-30 20 -5 0 -19 -9 -30 -20z m50 -16 c11 -12 10 -18 -3 -32 -16 -15 -18 -15
-34 0 -13 14 -14 20 -3 32 7 9 16 16 20 16 4 0 13 -7 20 -16z"/>
<path d="M2678 2571 l-33 -30 23 -23 c12 -12 22 -17 22 -11 0 7 -5 15 -11 19
-7 4 0 17 17 35 38 39 24 48 -18 10z"/>
<path d="M1345 2530 c-18 -20 -18 -21 1 -35 33 -27 56 -37 62 -29 4 4 1 9 -7
12 -9 3 -4 9 15 18 25 11 26 12 8 13 -13 1 -24 9 -27 21 -7 26 -29 26 -52 0z
m35 -10 c0 -5 -4 -10 -10 -10 -5 0 -10 5 -10 10 0 6 5 10 10 10 6 0 10 -4 10
-10z"/>
<path d="M2045 2537 c-33 -5 -73 -14 -90 -22 -16 -7 -43 -16 -59 -20 -28 -6
-28 -6 -10 -26 10 -11 21 -41 24 -67 5 -43 7 -47 30 -44 14 2 33 11 42 19 20
18 43 6 53 -28 6 -17 8 -17 21 -4 19 18 38 19 64 3 10 -7 22 -10 25 -7 8 8 15
130 8 156 -9 38 -41 49 -108 40z"/>
<path d="M2721 2506 c-18 -13 -28 -27 -23 -30 9 -6 72 34 72 47 0 13 -15 8
-49 -17z"/>
<path d="M1553 2430 c0 -41 2 -58 4 -37 2 20 2 54 0 75 -2 20 -4 3 -4 -38z"/>
<path d="M2339 2483 c-13 -16 -12 -17 4 -4 9 7 17 15 17 17 0 8 -8 3 -21 -13z"/>
<path d="M2763 2478 c-4 -7 -6 -21 -5 -30 2 -10 -2 -18 -7 -18 -6 0 -11 7 -11
15 0 8 -4 15 -10 15 -15 0 -12 -26 5 -40 22 -18 45 -5 45 27 0 26 1 26 15 7
11 -15 14 -16 15 -3 0 16 -18 39 -31 39 -4 0 -11 -6 -16 -12z"/>
<path d="M1303 2458 c-23 -30 -22 -37 12 -58 37 -23 53 -22 39 2 -4 7 -8 24
-8 38 -1 27 -27 39 -43 18z m27 -23 c0 -8 -4 -15 -9 -15 -13 0 -22 16 -14 24
11 11 23 6 23 -9z"/>
<path d="M2299 2433 c-13 -16 -12 -17 4 -4 9 7 17 15 17 17 0 8 -8 3 -21 -13z"/>
<path d="M1813 2413 c-8 -19 -7 -57 3 -125 4 -32 16 -58 38 -84 l33 -38 7 43
c3 24 13 55 20 70 13 23 12 29 -5 50 -10 13 -19 31 -19 40 0 20 -40 61 -58 61
-7 0 -16 -8 -19 -17z"/>
<path d="M2190 2293 c0 -12 7 -23 15 -27 13 -5 14 -2 4 17 -17 32 -19 33 -19
10z"/>
<path d="M2182 2179 c-30 -37 -19 -59 14 -28 24 22 31 44 17 52 -5 2 -18 -8
-31 -24z"/>
<path d="M1420 2115 l-75 -75 70 -68 70 -67 -65 68 -64 67 74 75 c41 41 72 75
69 75 -2 0 -38 -34 -79 -75z"/>
<path d="M2260 2183 c0 -4 5 -15 10 -23 8 -13 10 -13 10 2 0 9 -4 20 -10 23
-5 3 -10 3 -10 -2z"/>
<path d="M2665 2110 c38 -38 72 -70 74 -70 3 0 -26 32 -64 70 -38 39 -72 70
-74 70 -3 0 26 -31 64 -70z"/>
<path d="M1638 2153 c7 -3 16 -2 19 1 4 3 -2 6 -13 5 -11 0 -14 -3 -6 -6z"/>
<path d="M2448 2153 c7 -3 16 -2 19 1 4 3 -2 6 -13 5 -11 0 -14 -3 -6 -6z"/>
<path d="M1788 2123 c7 -3 16 -2 19 1 4 3 -2 6 -13 5 -11 0 -14 -3 -6 -6z"/>
<path d="M2060 2114 c-8 -3 -22 -8 -30 -11 -11 -4 -9 -7 8 -14 29 -11 74 -1
69 15 -4 13 -25 17 -47 10z"/>
<path d="M2292 2090 c0 -14 2 -19 5 -12 2 6 2 18 0 25 -3 6 -5 1 -5 -13z"/>
<path d="M1792 2053 c-1 -30 -7 -53 -14 -56 -8 -3 -6 -6 5 -6 9 -1 17 -6 17
-13 0 -6 1 -9 3 -7 2 2 0 33 -3 69 l-7 65 -1 -52z"/>
<path d="M1854 2048 c-5 -7 17 -35 59 -74 56 -52 68 -69 77 -110 8 -34 8 -50
1 -52 -6 -2 -11 -9 -11 -15 0 -6 -6 -18 -14 -26 -13 -16 -60 -240 -52 -249 9
-9 26 10 26 28 0 28 82 190 96 190 17 0 47 -51 80 -135 28 -73 40 -93 49 -83
6 6 -10 82 -31 143 -8 22 -15 56 -16 77 -2 20 -6 34 -10 32 -4 -2 -10 1 -14 7
-3 6 0 15 7 20 11 7 10 9 -3 9 -15 0 -18 9 -18 47 0 46 2 50 72 115 58 54 70
70 60 80 -10 10 -17 7 -35 -14 -28 -35 -96 -88 -112 -88 -8 0 -12 14 -11 38 1
31 -3 38 -21 40 -25 4 -41 -31 -23 -53 8 -10 8 -15 0 -20 -15 -9 -84 37 -111
75 -25 33 -34 36 -45 18z"/>
<path d="M2292 2010 c0 -14 2 -19 5 -12 2 6 2 18 0 25 -3 6 -5 1 -5 -13z"/>
<path d="M1820 1934 c0 -6 15 -26 33 -45 17 -20 25 -26 16 -15 -9 12 -23 32
-32 46 -10 13 -17 20 -17 14z"/>
<path d="M2226 1882 c-36 -42 -36 -44 -7 -17 28 25 58 66 49 65 -2 -1 -21 -22
-42 -48z"/>
<path d="M1897 1837 c-3 -8 6 -12 25 -13 32 -1 32 -1 1 14 -16 9 -22 9 -26 -1z"/>
<path d="M2170 1831 c0 -6 4 -13 10 -16 6 -3 7 1 4 9 -7 18 -14 21 -14 7z"/>
<path d="M1961 1804 c0 -11 3 -14 6 -6 3 7 2 16 -1 19 -3 4 -6 -2 -5 -13z"/>
<path d="M1561 1756 c-8 -9 -11 -44 -8 -98 l3 -83 2 86 c1 50 7 90 14 97 7 7
9 12 6 12 -3 0 -11 -6 -17 -14z"/>
<path d="M1377 1502 c-28 -29 -37 -53 -13 -33 10 8 16 9 21 1 8 -13 42 -13 51
1 6 11 -14 59 -26 59 -3 0 -18 -13 -33 -28z m43 -12 c0 -5 -4 -10 -10 -10 -5
0 -10 5 -10 10 0 6 5 10 10 10 6 0 10 -4 10 -10z"/>
<path d="M2641 1501 c-13 -24 6 -42 37 -34 23 6 31 -12 10 -20 -7 -2 -10 -8
-6 -12 11 -11 38 14 38 35 0 23 -19 30 -43 18 -16 -8 -18 -7 -12 11 8 26 -11
28 -24 2z"/>
<path d="M1975 1410 c38 -38 72 -70 74 -70 3 0 -26 32 -64 70 -38 39 -72 70
-74 70 -3 0 26 -31 64 -70z"/>
<path d="M1431 1439 c-13 -17 -20 -33 -17 -37 4 -3 11 0 16 8 7 11 10 8 10
-12 0 -16 5 -28 10 -28 6 0 10 7 10 15 0 8 7 15 15 15 24 0 29 29 10 50 -23
25 -25 25 -54 -11z m46 -15 c-9 -9 -28 6 -21 18 4 6 10 6 17 -1 6 -6 8 -13 4
-17z"/>
<path d="M2600 1462 c0 -5 9 -17 20 -27 23 -21 26 -45 7 -45 -8 0 -22 9 -32
20 -25 28 -39 25 -19 -5 19 -30 50 -41 69 -25 22 18 18 43 -8 68 -24 23 -37
28 -37 14z"/>
<path d="M1498 1399 c-36 -21 -16 -79 27 -79 42 0 59 44 29 74 -18 18 -32 20
-56 5z m48 -24 c8 -20 -13 -45 -32 -38 -14 5 -19 34 -7 46 11 12 33 7 39 -8z"/>
<path d="M2512 1387 c-9 -10 -6 -21 11 -45 24 -34 36 -39 55 -20 17 17 15 42
-6 61 -22 20 -46 22 -60 4z m38 -11 c0 -3 -4 -8 -10 -11 -5 -3 -10 -1 -10 4 0
6 5 11 10 11 6 0 10 -2 10 -4z m20 -31 c0 -8 -4 -15 -10 -15 -5 0 -10 7 -10
15 0 8 5 15 10 15 6 0 10 -7 10 -15z"/>
<path d="M2480 1363 c0 -15 33 -73 43 -73 4 0 7 6 7 13 0 16 -49 76 -50 60z"/>
<path d="M2454 1324 c6 -21 4 -25 -8 -20 -9 3 -23 9 -31 12 -20 8 -19 -11 2
-47 25 -41 45 -40 23 2 -12 22 -10 23 25 7 35 -16 39 -6 14 36 -25 43 -34 46
-25 10z"/>
<path d="M1603 1304 c-15 -31 -15 -36 -3 -44 8 -6 27 -10 42 -10 36 0 49 41
23 70 -26 29 -43 25 -62 -16z m55 -11 c3 -22 -18 -36 -37 -23 -10 6 -10 12 1
29 15 25 32 22 36 -6z"/>
<path d="M2370 1305 c0 -2 7 -23 16 -45 10 -25 20 -38 26 -32 10 10 -20 82
-34 82 -4 0 -8 -2 -8 -5z"/>
<path d="M1687 1263 c-15 -38 -15 -38 11 -50 31 -13 46 -7 19 8 -24 14 -22 32
3 24 11 -4 20 -2 20 4 0 6 -7 11 -15 11 -8 0 -15 5 -15 11 0 7 10 9 25 5 14
-4 25 -2 25 3 0 7 -32 20 -51 21 -4 0 -14 -17 -22 -37z"/>
<path d="M2336 1264 c-7 -25 -7 -25 -32 -9 -34 22 -38 15 -18 -34 16 -41 37
-49 26 -9 -3 15 -2 19 7 14 6 -4 18 -2 26 4 12 10 15 9 15 -4 0 -9 5 -16 10
-16 13 0 13 10 -1 49 -13 38 -25 40 -33 5z"/>
<path d="M1772 1258 c-7 -7 -12 -21 -12 -33 0 -12 5 -26 12 -33 27 -27 78 -7
78 29 0 39 -52 63 -78 37z m53 -33 c0 -13 -8 -21 -22 -23 -17 -3 -23 2 -23 16
0 10 3 22 7 26 13 13 38 1 38 -19z"/>
<path d="M2210 1253 c-33 -13 -40 -52 -14 -77 8 -9 22 -16 29 -16 20 0 45 28
45 50 0 18 -25 51 -38 49 -4 0 -14 -3 -22 -6z m35 -43 c0 -16 -6 -26 -18 -28
-19 -4 -32 20 -23 44 9 25 41 13 41 -16z"/>
<path d="M1897 1203 c-8 -46 -3 -53 34 -53 18 0 28 4 24 10 -3 6 -15 10 -26
10 -30 0 -22 20 9 21 27 0 27 1 5 11 -28 14 -30 28 -3 21 11 -3 20 0 20 6 0 6
-13 11 -29 11 -25 0 -29 -4 -34 -37z"/>
<path d="M1975 1230 c-3 -5 1 -10 9 -10 12 0 16 -10 16 -35 0 -19 5 -35 10
-35 6 0 10 16 10 35 0 26 4 35 18 36 11 1 9 4 -8 9 -36 11 -48 11 -55 0z"/>
<path d="M2090 1211 c0 -36 9 -61 22 -61 5 0 8 8 6 17 -2 10 4 19 15 21 12 2
17 -3 17 -17 0 -12 5 -21 10 -21 11 0 14 49 4 74 -8 21 -26 20 -22 -1 2 -10
-4 -19 -14 -21 -11 -2 -18 3 -18 12 0 8 -4 18 -10 21 -6 4 -10 -6 -10 -24z"/>
<path d="M2936 2821 c-16 -17 -16 -19 4 -24 11 -3 20 -1 20 3 0 5 3 15 6 24 8
22 -9 20 -30 -3z"/>
<path d="M3175 2399 c-8 -13 -6 -15 23 -23 18 -6 22 -3 22 13 0 23 -33 30 -45
10z"/>
<path d="M3110 2366 c0 -27 7 -31 34 -20 17 7 22 34 7 34 -5 0 -16 3 -25 6
-12 5 -16 0 -16 -20z"/>
<path d="M840 2121 c-13 -26 -13 -31 3 -31 18 0 49 34 40 43 -12 13 -32 7 -43
-12z"/>
<path d="M892 2118 c-7 -7 -12 -15 -12 -19 0 -13 43 -18 62 -8 15 8 17 13 7
25 -14 17 -41 18 -57 2z"/>
<path d="M876 1814 c-92 -15 -116 -30 -35 -20 47 5 61 3 81 -14 l25 -19 12 25
c13 29 14 45 4 43 -5 -1 -43 -7 -87 -15z"/>
<path d="M3140 1761 c0 -5 12 -19 26 -30 29 -23 78 -29 72 -8 -7 21 -98 57
-98 38z"/>
<path d="M1310 1040 c0 -5 5 -10 10 -10 6 0 10 5 10 10 0 6 -4 10 -10 10 -5 0
-10 -4 -10 -10z"/>
<path d="M1413 995 c-3 -9 -3 -18 0 -21 9 -9 27 6 27 22 0 19 -19 18 -27 -1z"/>
<path d="M1500 930 c0 -5 5 -10 10 -10 6 0 10 5 10 10 0 6 -4 10 -10 10 -5 0
-10 -4 -10 -10z"/>
<path d="M2477 923 c-4 -6 0 -18 7 -28 8 -11 16 -14 19 -8 4 6 0 18 -7 28 -8
11 -16 14 -19 8z"/>
<path d="M1710 850 c0 -5 5 -10 10 -10 6 0 10 5 10 10 0 6 -4 10 -10 10 -5 0
-10 -4 -10 -10z"/>
<path d="M2254 877 c-7 -20 14 -59 29 -54 20 6 15 61 -6 65 -9 2 -20 -3 -23
-11z"/>
<path d="M1990 820 c0 -13 5 -20 13 -17 6 2 12 10 12 17 0 7 -6 15 -12 18 -8
2 -13 -5 -13 -18z"/>
<path d="M306 2498 l-78 -79 4 -54 c3 -38 12 -64 32 -89 21 -28 28 -50 32
-103 l5 -68 -33 36 c-18 20 -55 53 -83 74 -27 22 -67 55 -88 74 l-38 36 7 -55
c11 -86 52 -205 87 -252 21 -29 52 -53 94 -73 l62 -30 3 -78 c2 -42 0 -77 -3
-77 -4 0 -18 15 -32 34 -15 18 -38 37 -52 40 -64 16 -133 48 -163 75 -17 17
-32 28 -32 25 0 -2 13 -30 28 -62 16 -31 35 -79 42 -106 8 -30 26 -62 48 -83
40 -40 124 -83 164 -83 22 0 29 -6 34 -27 3 -16 12 -50 19 -78 16 -55 12 -65
-13 -47 -56 40 -80 51 -140 60 -37 5 -85 18 -107 28 -22 10 -44 20 -50 23 -5
2 8 -16 30 -40 22 -24 55 -70 74 -101 44 -73 104 -108 202 -117 l70 -6 34 -77
c37 -85 32 -93 -28 -52 -30 20 -56 27 -130 33 -50 5 -105 14 -120 20 -16 6
-30 11 -32 11 -3 0 19 -24 48 -53 28 -30 70 -74 92 -98 50 -56 105 -74 205
-67 l69 5 42 -64 c23 -35 39 -67 35 -71 -4 -3 -21 1 -37 11 -24 13 -55 17
-139 17 -60 0 -121 4 -137 10 -27 9 -26 8 7 -18 19 -15 62 -53 95 -84 33 -31
74 -62 90 -68 38 -15 161 -15 199 0 28 10 32 8 70 -30 l41 -40 -41 0 c-22 0
-63 -7 -90 -15 -27 -8 -80 -15 -119 -15 l-69 0 69 -35 c39 -19 92 -50 119 -68
46 -30 56 -32 130 -31 57 0 91 5 114 18 l33 17 71 -48 c38 -26 72 -51 74 -55
3 -5 -16 -8 -42 -8 -34 0 -68 -10 -120 -36 -39 -19 -94 -39 -120 -43 l-49 -7
58 -13 c32 -7 83 -24 113 -37 95 -42 206 -28 286 37 36 28 39 29 67 15 16 -9
55 -25 85 -37 31 -11 54 -24 51 -28 -2 -5 -22 -11 -44 -15 -29 -4 -59 -22
-110 -66 -38 -33 -89 -69 -113 -80 l-43 -20 80 2 c44 1 107 1 141 -1 79 -5
138 21 204 89 l50 51 100 -27 c55 -16 100 -32 100 -36 0 -4 -20 -19 -45 -33
-24 -15 -57 -41 -71 -58 l-27 -32 142 -3 c140 -3 143 -2 172 23 40 33 64 32
101 -5 l30 -30 139 0 c97 0 139 3 139 11 0 17 -67 77 -111 100 -21 10 -39 23
-39 27 0 4 47 21 105 36 l105 29 44 -46 c80 -82 108 -92 278 -92 l147 0 -47
24 c-26 13 -73 48 -105 76 -39 36 -73 57 -103 64 -24 6 -44 15 -44 19 0 4 37
21 81 39 l81 32 34 -25 c46 -35 126 -64 178 -64 26 0 76 12 118 29 40 16 93
32 118 36 l45 8 -57 13 c-32 7 -86 28 -120 45 -46 24 -76 32 -110 31 -27 0
-48 2 -48 6 1 4 33 29 72 55 l71 48 46 -18 c29 -12 72 -18 117 -18 67 1 76 4
130 40 32 22 83 52 114 67 l55 26 -55 1 c-30 1 -71 6 -90 12 -19 5 -63 13 -96
17 l-62 7 34 39 c33 39 33 39 78 27 63 -16 150 -14 193 4 20 9 64 41 98 73 33
31 74 67 90 80 18 14 22 20 10 15 -11 -4 -72 -8 -135 -8 -90 -1 -122 -5 -148
-19 -18 -9 -37 -16 -42 -14 -5 2 12 33 37 70 l46 67 62 -6 c87 -8 170 17 210
65 16 19 57 65 90 100 55 60 57 63 25 47 -20 -11 -70 -20 -125 -24 -73 -6 -99
-13 -138 -35 -26 -16 -50 -26 -53 -24 -2 3 12 39 32 82 l36 76 42 0 c59 0 139
26 175 56 17 14 44 49 60 78 17 29 40 61 52 72 11 10 25 26 30 36 8 15 5 15
-34 -2 -23 -10 -74 -24 -112 -30 -39 -6 -79 -18 -90 -25 -11 -8 -30 -22 -43
-31 -29 -21 -34 -16 -22 27 5 19 14 53 20 77 8 29 16 42 29 42 81 0 200 90
221 167 7 26 26 74 42 105 15 32 28 60 28 63 0 4 -18 -9 -41 -29 -26 -21 -67
-43 -110 -56 -53 -16 -75 -28 -96 -55 -16 -19 -30 -35 -33 -35 -3 0 -3 37 0
82 l5 81 39 14 c22 7 53 24 71 37 58 44 112 173 130 311 7 48 6 49 -9 28 -9
-12 -50 -47 -91 -78 -40 -31 -88 -72 -105 -93 l-31 -37 4 67 c4 54 11 77 36
114 23 35 31 59 31 91 0 41 -5 50 -72 123 -40 43 -76 78 -80 79 -3 1 -12 -22
-18 -50 -19 -78 -8 -154 34 -237 35 -70 46 -131 27 -160 -6 -10 -12 -6 -26 15
-10 15 -39 47 -65 70 -27 24 -62 64 -80 90 l-32 48 4 -110 c4 -91 9 -120 30
-166 31 -68 82 -128 125 -146 33 -13 33 -14 33 -83 0 -76 -12 -90 -30 -35 -7
21 -36 56 -78 94 -37 32 -74 71 -82 85 -7 14 -16 26 -19 26 -13 0 6 -226 21
-262 20 -45 92 -124 131 -144 30 -16 31 -19 6 -117 -10 -37 -29 -43 -29 -9 0
41 -23 94 -61 139 -22 26 -50 70 -63 96 l-24 48 -9 -68 c-17 -140 -11 -202 25
-276 18 -37 48 -79 66 -94 l34 -26 -20 -46 c-33 -76 -44 -81 -51 -20 -5 36
-18 70 -46 113 -22 33 -45 80 -52 104 -7 23 -14 41 -15 39 -14 -14 -45 -212
-41 -258 5 -62 37 -142 68 -176 l21 -21 -41 -61 c-23 -34 -46 -61 -51 -61 -6
0 -10 27 -10 60 0 44 -7 74 -24 108 -13 26 -29 68 -36 92 -6 25 -14 53 -17 64
-3 12 -18 -19 -40 -85 -49 -145 -48 -223 5 -337 l15 -34 -61 -61 c-34 -34 -64
-59 -67 -55 -3 3 0 28 6 57 9 44 8 60 -10 118 -12 36 -21 94 -22 127 l0 61
-20 -45 c-11 -24 -30 -58 -43 -75 -33 -43 -62 -104 -70 -147 -8 -45 9 -125 34
-160 l20 -27 -48 -34 c-55 -40 -92 -60 -98 -54 -2 2 2 20 10 39 11 26 14 57 9
119 -3 48 -1 100 5 121 10 37 8 36 -66 -43 -101 -107 -116 -136 -116 -224 0
-38 2 -77 4 -84 4 -11 -13 -22 -55 -37 -82 -31 -88 -30 -65 9 11 19 25 60 31
92 6 32 22 83 35 114 l25 56 -28 -27 c-15 -14 -56 -40 -90 -57 -104 -52 -163
-134 -163 -227 0 -38 15 -34 -234 -69 l-178 -26 -177 26 c-97 14 -184 28 -193
31 -13 4 -18 16 -18 42 0 86 -69 176 -173 228 -29 14 -64 38 -79 52 -34 32
-34 28 -3 -40 14 -30 30 -82 36 -114 6 -32 20 -71 31 -86 24 -35 14 -36 -70
-6 -55 19 -61 24 -55 42 5 12 8 50 7 86 0 82 -18 117 -98 195 -33 33 -69 71
-78 85 -16 24 -16 24 -6 -20 5 -25 7 -80 4 -123 -4 -59 -2 -88 11 -118 8 -22
13 -42 11 -44 -3 -4 -124 71 -146 90 -2 1 8 19 21 38 51 74 40 188 -25 278
-18 24 -42 64 -54 89 l-23 45 0 -56 c-1 -31 -10 -87 -22 -124 -17 -57 -19 -74
-9 -117 6 -28 8 -53 5 -56 -3 -4 -33 21 -67 55 l-61 61 21 43 c48 101 47 185
-2 324 -14 39 -26 79 -26 89 0 31 -9 14 -25 -48 -8 -31 -26 -79 -40 -106 -18
-36 -25 -65 -25 -110 0 -33 -4 -60 -9 -60 -6 0 -28 25 -50 56 l-40 55 24 35
c61 90 78 193 51 303 -8 31 -17 74 -21 96 l-7 39 -18 -51 c-10 -29 -35 -79
-55 -112 -23 -37 -39 -78 -42 -106 -3 -25 -9 -45 -13 -45 -4 0 -19 26 -33 58
l-25 57 35 29 c37 31 75 97 93 166 9 34 9 69 0 157 l-12 114 -23 -48 c-12 -26
-41 -70 -64 -98 -38 -46 -61 -96 -61 -137 0 -34 -19 -28 -29 10 -21 76 -24
102 -12 102 20 0 111 92 139 139 23 39 27 59 32 160 l5 116 -88 -87 c-48 -47
-92 -100 -98 -117 -18 -50 -29 -36 -29 38 0 66 1 69 29 81 46 19 92 70 125
140 27 57 31 77 34 170 3 94 1 103 -12 85 -45 -62 -182 -200 -188 -191 -17 25
-6 85 28 156 42 86 54 177 32 246 l-13 42 -79 -80z"/>
<path d="M1777 502 c-19 -20 -13 -34 9 -25 11 4 14 -6 14 -41 0 -34 4 -46 15
-46 12 0 15 14 15 65 0 57 -2 65 -18 65 -11 0 -26 -8 -35 -18z"/>
<path d="M1900 505 c-7 -8 -10 -25 -6 -40 5 -20 13 -25 37 -25 38 0 34 -24 -5
-28 -15 -2 -25 -9 -23 -15 6 -18 50 -9 70 15 19 23 22 60 7 89 -13 23 -62 26
-80 4z m56 -16 c10 -17 -13 -36 -27 -22 -12 12 -4 33 11 33 5 0 12 -5 16 -11z"/>
<path d="M2030 510 c0 -5 14 -10 31 -10 35 0 35 -4 5 -72 -14 -33 -14 -38 -2
-38 14 0 43 53 61 109 6 19 3 21 -44 21 -28 0 -51 -4 -51 -10z"/>
<path d="M2197 502 c-23 -25 -21 -35 3 -27 18 6 20 2 20 -39 0 -34 4 -46 15
-46 12 0 15 14 15 65 0 57 -2 65 -18 65 -11 0 -26 -8 -35 -18z"/>
</g>
</svg>
